<svg id="CLARIMOND_LOGO" data-name="CLARIMOND LOGO" xmlns="http://www.w3.org/2000/svg" viewBox="0 0 913.63 575.27"><defs><style>.cls-1{fill:#faf4f7;}.cls-2{fill:#be9d40;}.cls-3{fill:#f9c829;}</style></defs><path class="cls-1" d="M328.22,534.77H309.05l-4.58-12.53H270.26l-4.66,12.53H246.43l41-89.43ZM297.37,504l-9.93-21.71L277.51,504Z" transform="translate(-43.18 -44.3)"/><path class="cls-1" d="M115.55,508.47a29.82,29.82,0,0,1-24.43,13c-16.74,0-30.3-14.2-30.3-31.72S74.38,458,91.12,458a29.74,29.74,0,0,1,23.34,11.5l12.73-11Q113.15,442,91.07,442a46.79,46.79,0,0,0-34,13.91,45.9,45.9,0,0,0-13.92,33.71,47.51,47.51,0,0,0,47.89,47.89q23,0,37.32-17.92Z" transform="translate(-43.18 -44.3)"/><path class="cls-1" d="M218.71,520.22H178.17V462.1c-3.27-7.84-9.66-15-17.86-18.23v90.9H211C214.31,530.94,216.09,527.15,218.71,520.22Z" transform="translate(-43.18 -44.3)"/><path class="cls-1" d="M720.76,456.77A45.32,45.32,0,0,0,687.35,443a46.38,46.38,0,0,0-33.67,13.79,45.51,45.51,0,0,0-13.79,33.41,47.09,47.09,0,0,0,47.46,47.46,45.32,45.32,0,0,0,33.41-13.79,46.38,46.38,0,0,0,13.79-33.67A45.51,45.51,0,0,0,720.76,456.77Zm-33.54,64.57a31,31,0,1,1,31-31A31,31,0,0,1,687.22,521.34Z" transform="translate(-43.18 -44.3)"/><path class="cls-1" d="M458.41,442.87v75.38a38.78,38.78,0,0,0,17.87,16.41V459.28A38.78,38.78,0,0,0,458.41,442.87Z" transform="translate(-43.18 -44.3)"/><polygon class="cls-1" points="516.57 448.9 471.12 397.56 471.12 399.58 471.12 490.47 488.26 490.47 488.26 442.79 516.57 474.76 544.88 442.79 544.88 490.47 562.03 490.47 562.03 399.58 562.03 397.56 516.57 448.9"/><path class="cls-1" d="M405.61,508.18c.43-.2.86-.38,1.29-.6Q423,498.94,423,478.05q0-21.21-16.13-29.38a33.42,33.42,0,0,0-16.14-4.56H376.07v-.24H358.2v90.9h17.87v-23.1h12.69c4.77,8.58,13.27,20.4,16.18,22.72,6.62,5.25,16.27,2.17,23.79.38C428.73,534.77,418,527.87,405.61,508.18Zm-6.52-13.85a18,18,0,0,1-8.4,2.26H376.07v-37.4h14.62a16.65,16.65,0,0,1,8.4,2.52q8.4,4.53,8.4,16.27Q407.49,489.54,399.09,494.33Z" transform="translate(-43.18 -44.3)"/><path class="cls-1" d="M939.1,452.23c-6.71-5.05-15.79-8.36-23.31-8.36h-36.5v90.64h36.5c7.52,0,16.6-3.31,23.31-8.35,11.43-8.6,17.72-21.52,17.72-37S950.53,460.82,939.1,452.23ZM926.28,515c-4.58,2.26-6.08,3.39-10.49,3.39H897.45V460h18.34c4.41,0,5.91,1.13,10.49,3.39C935.44,468,940,477.94,940,489.19S935.44,510.37,926.28,515Z" transform="translate(-43.18 -44.3)"/><polygon class="cls-1" points="783.44 399.58 783.44 452.68 726.12 395.36 726.12 398.03 726.12 490.47 743.26 490.47 743.26 436.75 800.58 494.07 800.58 399.58 783.44 399.58"/><path class="cls-1" d="M403.17,617a18.38,18.38,0,0,1-7.17-6.93,20.23,20.23,0,0,1,0-19.77,18.52,18.52,0,0,1,7.17-6.93,20.91,20.91,0,0,1,10.24-2.52,20.69,20.69,0,0,1,10.18,2.5,18.43,18.43,0,0,1,7.15,6.92,20.21,20.21,0,0,1,0,19.83,18.53,18.53,0,0,1-7.15,6.93,22,22,0,0,1-20.42,0Zm18.38-3.1a14.7,14.7,0,0,0,5.71-5.65,16.82,16.82,0,0,0,0-16.13,14.76,14.76,0,0,0-5.71-5.65,16.34,16.34,0,0,0-8.14-2,16.55,16.55,0,0,0-8.18,2,15,15,0,0,0-5.76,5.65,16.61,16.61,0,0,0,0,16.13,14.89,14.89,0,0,0,5.76,5.65,16.55,16.55,0,0,0,8.18,2A16.34,16.34,0,0,0,421.55,613.94Z" transform="translate(-43.18 -44.3)"/><path class="cls-1" d="M556.17,615.76v3.48H531.28v-38h24.07v3.48H535.3v18.53H553v3.42H535.3v9.12Z" transform="translate(-43.18 -44.3)"/><path class="cls-1" d="M658.19,584.69H644.83v-3.48h30.75v3.48H662.21v34.55h-4Z" transform="translate(-43.18 -44.3)"/><path class="cls-1" d="M727,606.09v13.15h-4V606.09L707.8,581.21h4.3l13,21.35,13-21.35h4Z" transform="translate(-43.18 -44.3)"/><path class="cls-1" d="M473.44,619.24V608.91h4.22q7.27,0,11.4-3.45c2.76-2.3,4.13-6.48,4.13-10.53s-1.37-8.25-4.13-10.57-6.55-3.47-11.4-3.47h-8.24v38.35Zm0-34.88h4.11q5.64,0,8.64,2.48c2,1.65,3,5,3,8.09s-1,6.33-3,8-4.88,2.47-8.64,2.47h-4.11Z" transform="translate(-43.18 -44.3)"/><path class="cls-1" d="M277.44,619.24V608.91h4.22q7.27,0,11.4-3.45c2.76-2.3,4.13-6.48,4.13-10.53s-1.37-8.25-4.13-10.57-6.55-3.47-11.4-3.47h-8.24v38.35Zm0-34.88h4.11q5.64,0,8.64,2.48c2,1.65,3,5,3,8.09s-1,6.33-3,8-4.88,2.47-8.64,2.47h-4.11Z" transform="translate(-43.18 -44.3)"/><path class="cls-1" d="M337.3,619.4V609h4.21a27.37,27.37,0,0,0,3.05-.17l7.5,10.55h4.39L348.36,608a12.53,12.53,0,0,0,6.44-4.43c1.5-2,2.25-5.55,2.25-8.52,0-4.06-1.38-8.24-4.13-10.56s-6.55-3.48-11.41-3.48h-8.23V619.4Zm0-34.87h4.1q5.66,0,8.64,2.47c2,1.65,3,5,3,8.09s-1,6.34-3,8-4.87,2.5-8.64,2.5h-4.1Z" transform="translate(-43.18 -44.3)"/><path class="cls-1" d="M595.34,619.4V609h4.22a27.18,27.18,0,0,0,3-.17l7.5,10.55h4.4L606.4,608a12.49,12.49,0,0,0,6.44-4.43c1.5-2,2.25-5.55,2.25-8.52,0-4.06-1.37-8.24-4.13-10.56s-6.55-3.48-11.4-3.48h-8.24V619.4Zm0-34.87h4.11q5.64,0,8.64,2.47c2,1.65,3,5,3,8.09s-1,6.34-3,8-4.88,2.5-8.64,2.5h-4.11Z" transform="translate(-43.18 -44.3)"/><path class="cls-2" d="M515.62,141.42a21.2,21.2,0,0,0-30,0l-94,94L442,295.62H559.29l50.34-60.19Z" transform="translate(-43.18 -44.3)"/><path class="cls-3" d="M670.52,205.41,515.62,50.51a21.2,21.2,0,0,0-30,0l-154.9,154.9v76.64l154.9-154.91a21.2,21.2,0,0,1,30,0l154.9,154.91Z" transform="translate(-43.18 -44.3)"/><polygon class="cls-1" points="574.78 198.3 522.18 261.19 482.17 261.19 432.73 261.19 392.72 261.19 340.12 198.3 295.54 242.88 358.08 319.92 432.73 319.92 482.17 319.92 556.81 319.92 619.36 242.88 574.78 198.3"/></svg>