<svg id="CLARIMOND_LOGO" data-name="CLARIMOND LOGO" xmlns="http://www.w3.org/2000/svg" viewBox="0 0 913.6 575.23"><defs><style>.cls-1{fill:#292553;}.cls-2{fill:#be9d40;}.cls-3{fill:#f9c829;}</style></defs><path class="cls-1" d="M328.2,534.8H309l-4.6-12.5H270.2l-4.7,12.5H246.3l41-89.4ZM297.4,504l-9.9-21.7L277.6,504Z" transform="translate(-43.2 -44.28)"/><path class="cls-1" d="M115.6,508.5a29.74,29.74,0,0,1-24.4,13c-16.7,0-30.3-14.2-30.3-31.7s13.6-31.7,30.3-31.7a29.62,29.62,0,0,1,23.3,11.5l12.7-11c-9.4-11-21.4-16.5-36.1-16.5a46.81,46.81,0,0,0-34,13.9,45.82,45.82,0,0,0-13.9,33.7,47.46,47.46,0,0,0,47.9,47.9c15.4,0,27.8-6,37.3-17.9Z" transform="translate(-43.2 -44.28)"/><path class="cls-1" d="M218.7,520.2H178.2V462.1c-3.3-7.8-9.7-15-17.9-18.2v90.9H211C214.3,530.9,216.1,527.2,218.7,520.2Z" transform="translate(-43.2 -44.28)"/><path class="cls-1" d="M720.8,456.8A45.28,45.28,0,0,0,687.4,443a46.44,46.44,0,0,0-33.7,13.8,45.44,45.44,0,0,0-13.8,33.4,47.12,47.12,0,0,0,47.5,47.5,45.28,45.28,0,0,0,33.4-13.8,46.44,46.44,0,0,0,13.8-33.7A45.44,45.44,0,0,0,720.8,456.8Zm-33.6,64.5a31,31,0,1,1,31-31A31,31,0,0,1,687.2,521.3Z" transform="translate(-43.2 -44.28)"/><path class="cls-1" d="M458.4,442.9v75.4a39,39,0,0,0,17.9,16.4V459.3A39,39,0,0,0,458.4,442.9Z" transform="translate(-43.2 -44.28)"/><polygon class="cls-1" points="516.6 448.93 471.1 397.63 471.1 399.63 471.1 490.52 488.2 490.52 488.2 442.82 516.6 474.82 544.9 442.82 544.9 490.52 562 490.52 562 399.63 562 397.63 516.6 448.93"/><path class="cls-1" d="M405.6,508.2c.4-.2.9-.4,1.3-.6C417.7,501.8,423,492,423,478s-5.4-23.9-16.1-29.4c-5.5-3-10.9-4.6-16.1-4.6H376.1v-.2H358.2v90.9h17.9V511.6h12.7c4.8,8.6,13.3,20.4,16.2,22.7,6.6,5.3,16.3,2.2,23.8.4C428.7,534.8,418,527.9,405.6,508.2Zm-6.5-13.9a18.35,18.35,0,0,1-8.4,2.3H376.1V459.2h14.6a16.53,16.53,0,0,1,8.4,2.5c5.6,3,8.4,8.4,8.4,16.3C407.5,485.7,404.7,491.1,399.1,494.3Z" transform="translate(-43.2 -44.28)"/><path class="cls-1" d="M939.1,452.2c-6.7-5-15.8-8.4-23.3-8.4H879.3v90.6h36.5c7.5,0,16.6-3.3,23.3-8.4,11.4-8.6,17.7-21.5,17.7-37S950.5,460.8,939.1,452.2ZM926.3,515c-4.6,2.3-6.1,3.4-10.5,3.4H897.5V460h18.3c4.4,0,5.9,1.1,10.5,3.4,9.2,4.6,13.7,14.5,13.7,25.8S935.4,510.4,926.3,515Z" transform="translate(-43.2 -44.28)"/><polygon class="cls-1" points="783.4 399.63 783.4 452.73 726.1 395.43 726.1 398.02 726.1 490.52 743.2 490.52 743.2 436.73 800.6 494.13 800.6 399.63 783.4 399.63"/><path class="cls-1" d="M403.2,617a18.41,18.41,0,0,1-7.2-6.9,20.15,20.15,0,0,1,0-19.8,18.41,18.41,0,0,1,7.2-6.9,20.83,20.83,0,0,1,10.2-2.5,20.29,20.29,0,0,1,10.2,2.5,18.83,18.83,0,0,1,7.1,6.9,19.77,19.77,0,0,1,2.6,9.9,19.24,19.24,0,0,1-2.6,9.9,17.46,17.46,0,0,1-7.1,6.9,20.29,20.29,0,0,1-10.2,2.5A19.32,19.32,0,0,1,403.2,617Zm18.4-3.1a15.32,15.32,0,0,0,5.7-5.6,16.67,16.67,0,0,0,0-16.2,14.61,14.61,0,0,0-5.7-5.6,15.71,15.71,0,0,0-8.1-2,17.44,17.44,0,0,0-8.2,2,15.59,15.59,0,0,0-5.8,5.6,16.67,16.67,0,0,0,0,16.2,14.22,14.22,0,0,0,5.8,5.6,16.08,16.08,0,0,0,8.2,2A15.24,15.24,0,0,0,421.6,613.9Z" transform="translate(-43.2 -44.28)"/><path class="cls-1" d="M556.2,615.8v3.5H531.3v-38h24.1v3.5H535.3v18.5H553v3.4H535.3v9.1Z" transform="translate(-43.2 -44.28)"/><path class="cls-1" d="M658.2,584.7H644.8v-3.5h30.7v3.5H662.1v34.5h-4V584.7Z" transform="translate(-43.2 -44.28)"/><path class="cls-1" d="M727,606.1v13.1h-4V606.1l-15.2-24.9h4.3l13,21.3,13-21.3h4Z" transform="translate(-43.2 -44.28)"/><path class="cls-1" d="M473.4,619.2V608.9h4.2c4.9,0,8.7-1.1,11.4-3.4s4.1-6.5,4.1-10.5-1.4-8.2-4.1-10.6-6.6-3.5-11.4-3.5h-8.2v38.4h4Zm0-34.8h4.1c3.8,0,6.6.8,8.6,2.5s3,5,3,8.1-1,6.3-3,8-4.9,2.5-8.6,2.5h-4.1Z" transform="translate(-43.2 -44.28)"/><path class="cls-1" d="M277.4,619.2V608.9h4.2c4.9,0,8.7-1.1,11.4-3.4s4.1-6.5,4.1-10.5-1.4-8.2-4.1-10.6-6.6-3.5-11.4-3.5h-8.2v38.4h4Zm0-34.8h4.1c3.8,0,6.6.8,8.6,2.5s3,5,3,8.1-1,6.3-3,8-4.9,2.5-8.6,2.5h-4.1Z" transform="translate(-43.2 -44.28)"/><path class="cls-1" d="M337.3,619.4V609h4.2a28.32,28.32,0,0,0,3-.2l7.5,10.5h4.4l-8.1-11.4a12.52,12.52,0,0,0,6.4-4.4c1.5-2,2.3-5.6,2.3-8.5,0-4.1-1.4-8.2-4.1-10.6s-6.6-3.5-11.4-3.5h-8.2v38.4h4Zm0-34.9h4.1c3.8,0,6.6.8,8.6,2.5s3,5,3,8.1-1,6.3-3,8-4.9,2.5-8.6,2.5h-4.1Z" transform="translate(-43.2 -44.28)"/><path class="cls-1" d="M595.3,619.4V609h4.2a28.32,28.32,0,0,0,3-.2l7.5,10.5h4.4l-8.1-11.4a12.52,12.52,0,0,0,6.4-4.4c1.5-2,2.3-5.6,2.3-8.5,0-4.1-1.4-8.2-4.1-10.6s-6.6-3.5-11.4-3.5h-8.2v38.4h4Zm0-34.9h4.1c3.8,0,6.6.8,8.6,2.5s3,5,3,8.1-1,6.3-3,8-4.9,2.5-8.6,2.5h-4.1Z" transform="translate(-43.2 -44.28)"/><path class="cls-2" d="M515.6,141.4a21.25,21.25,0,0,0-30,0l-94,94,50.3,60.2H559.2l50.3-60.2Z" transform="translate(-43.2 -44.28)"/><path class="cls-3" d="M670.5,205.4,515.6,50.5a21.18,21.18,0,0,0-30,0L330.7,205.4V282L485.6,127.1a21.18,21.18,0,0,1,30,0L670.5,282Z" transform="translate(-43.2 -44.28)"/><polygon class="cls-1" points="574.8 198.32 522.2 261.23 482.2 261.23 432.7 261.23 392.7 261.23 340.1 198.32 295.5 242.93 358.1 319.93 432.7 319.93 482.2 319.93 556.8 319.93 619.3 242.93 574.8 198.32"/></svg>